<svg xmlns="http://www.w3.org/2000/svg" viewBox="0 0 64 64" enable-background="new 0 0 64 64"><path d="M0 0v64h64v-64h-64zm59.6 59.6h-55.2v-43.3h55.2v43.3zM19.5 51.6h5.4v-28.3h-4.4c-.6 1.7-1.8 3.2-3.4 4.5-1.7 1.3-3.2 2.2-4.6 2.6v4.9c2.7-.9 5-2.2 7-4.1v20.4zM40.8 42.1c2 0 3.7-.8 5.1-2.4-.2 3.2-.7 5.4-1.5 6.4s-1.7 1.5-2.8 1.5c-.9 0-1.6-.3-2.1-.8s-.9-1.3-1-2.4l-5.2.6c.4 2.3 1.3 4.1 2.6 5.3 1.4 1.2 3.1 1.8 5.3 1.8 3.1 0 5.6-1.1 7.5-3.4 1.9-2.3 2.9-6 2.9-11.2 0-5.1-.9-8.7-2.8-10.9-1.8-2.2-4.2-3.3-7-3.3-2.6 0-4.8.9-6.5 2.6-1.7 1.7-2.5 4-2.5 6.9 0 2.7.8 5 2.4 6.7 1.4 1.7 3.3 2.6 5.6 2.6zm-1.9-13.1c.7-.8 1.5-1.2 2.5-1.2 1.1 0 2 .5 2.8 1.5.8 1 1.2 2.3 1.2 4.1 0 1.6-.4 2.8-1.1 3.6-.7.8-1.6 1.2-2.6 1.2-1.1 0-2-.4-2.7-1.3-.7-.9-1.1-2.2-1.1-4 0-1.9.3-3.2 1-3.9z"/></svg>