<svg xmlns="http://www.w3.org/2000/svg" viewBox="0 0 64 64" enable-background="new 0 0 64 64"><path d="M28 0h8v64h-8zM23 50c0-1.1-.9-2-2-2h-19c-1.1 0-2 .9-2 2v12c0 1.1.9 2 2 2h19c1.1 0 2-.9 2-2v-12zM23 2c0-1.1-.9-2-2-2h-19c-1.1 0-2 .9-2 2v12c0 1.1.9 2 2 2h19c1.1 0 2-.9 2-2v-12zM13 26c0-1.1-.9-2-2-2h-9c-1.1 0-2 .9-2 2v12c0 1.1.9 2 2 2h9c1.1 0 2-.9 2-2v-12zM64 50c0-1.1-.9-2-2-2h-19c-1.1 0-2 .9-2 2v12c0 1.1.9 2 2 2h19c1.1 0 2-.9 2-2v-12zM64 2c0-1.1-.9-2-2-2h-19c-1.1 0-2 .9-2 2v12c0 1.1.9 2 2 2h19c1.1 0 2-.9 2-2v-12zM64 26c0-1.1-.9-2-2-2h-9c-1.1 0-2 .9-2 2v12c0 1.1.9 2 2 2h9c1.1 0 2-.9 2-2v-12z"/></svg>