<svg xmlns="http://www.w3.org/2000/svg" viewBox="0 0 64 64" enable-background="new 0 0 64 64"><path d="M45.1.6c1-.4 2.3-.7 4.1-.7 1.8 0 3.3.1 4.7.4-1.4 12.8-2.6 24.4-3.4 34.7-.8 10.4-1.3 15.8-1.3 16.4-.1.6-.1 1.1-.1 1.5 0 1.4.6 2.2 1.7 2.2 2.8 0 6.6-3.8 11.6-11.5.9 2.9 1.4 4.9 1.5 5.9-2.2 4.2-4.9 7.7-8 10.4-3.1 2.7-6.1 4-8.9 4-2.8 0-4.7-.9-5.8-2.6-1.1-1.7-1.6-3.6-1.6-5.8 0-.5.1-1.5.2-2.9s1-10.4 2.7-27l-11.2 31.7h-5.9l-3.4-31.1-4.9 25.8c-.8 4.1-2.1 7.1-3.9 9.1-1.8 1.9-3.7 2.9-5.9 2.9-2.1 0-3.9-.8-5.2-2.3-1.4-1.5-2.1-3.7-2.1-6.7 0-5.9 3.8-10.9 11.4-15.1 4.1-23.7 6.3-36.9 6.7-39.4 1.1-.4 2.6-.5 4.4-.5 1.9 0 3.2.1 3.9.2h.5l4.3 38.8 13.9-37.9v-.5zm-40.2 53c0 1.8.6 2.7 1.7 2.7.8 0 1.4-.8 1.9-2.3.6-1.8 1.2-4.3 1.6-7.3-3.4 2.4-5.2 4.7-5.2 6.9z"/></svg>