<svg xmlns="http://www.w3.org/2000/svg" viewBox="0 0 64 64" enable-background="new 0 0 64 64"><path d="M2.7 63.4l-2.1-2.1c-.8-.8-.8-2.1 0-2.8l42.3-42.3c.8-.8 2.1-.8 2.8 0l2.1 2.1c.8.8.8 2.1 0 2.8l-42.3 42.3c-.7.8-2 .8-2.8 0zM48.5 17.7l-2.1-2.1c-.8-.8-.8-2.1 0-2.8l3.2-3.2c.8-.8 2.1-.8 2.8 0l2.1 2.1c.8.8.8 2.1 0 2.8l-3.2 3.2c-.8.8-2 .8-2.8 0zM51.3 7.1c-.3 0-.5-.2-.5-.5v-6.1c0-.3.2-.5.5-.5s.5.2.5.5v6.1c0 .3-.2.5-.5.5zM46.6 9.2c-.2.2-.5.2-.7 0l-8.3-8.3c-.2-.2-.2-.5 0-.7.2-.2.5-.2.7 0l8.3 8.3c.2.2.2.5 0 .7zM43.6 12.9c0 .3-.2.5-.5.5h-7.1c-.3 0-.5-.2-.5-.5s.2-.5.5-.5h7.1c.2 0 .5.2.5.5zM64 13.1c0 .3-.2.5-.5.5h-5.6c-.3 0-.5-.2-.5-.5s.2-.5.5-.5h5.6c.3 0 .5.2.5.5zM51.3 27.4c-.3 0-.5-.2-.5-.5v-6.1c0-.3.2-.5.5-.5s.5.2.5.5v6.1c0 .3-.2.5-.5.5zM63.9 25.9c-.2.2-.5.2-.7 0l-8.3-8.3c-.2-.2-.2-.5 0-.7.2-.2.5-.2.7 0l8.3 8.3c.1.2.1.5 0 .7zM54.9 9.1c.2.2.5.2.7 0l8.3-8.3c.2-.2.2-.5 0-.7-.2-.2-.5-.2-.7 0l-8.3 8.3c-.2.2-.2.6 0 .7z"/></svg>