<svg xmlns="http://www.w3.org/2000/svg" viewBox="0 0 64 64" enable-background="new 0 0 64 64"><path d="M64 28h-20.7c-1.7-1-3.8-2.1-6.2-3.2-5-2.3-8.3-3.9-9.8-4.8-1.5-.9-2.8-2-3.7-3.3-.9-1.3-1.4-2.8-1.4-4.3 0-2 .7-3.7 2.1-5 1.4-1.3 3.3-2 5.7-2 3.2 0 6 1.2 8.6 3.8 2.5 2.6 4.3 5.8 5.2 9.8h5.2v-18h-5.3c-.4 2-.9 3.3-1.5 4.2-3.7-3.5-8.1-5.2-13.4-5.2-5 0-9.4 1.7-13.2 5.2-3.8 3.4-5.7 7.8-5.7 13.1 0 3.3.7 6.2 2.2 8.8.2.3.4.6.6 1h-12.7v8h22.7c2.5 1.4 5.7 3 9.6 5 3.6 1.8 5.9 3.5 6.9 5s1.5 3 1.5 4.5c0 2.1-.8 3.9-2.3 5.5-1.5 1.5-3.6 2.3-6.2 2.3-3.5 0-6.8-1.1-9.8-3.8-3-2.7-5.3-7.3-6.8-13.3h-5.6v21h5.4c.3-2 .8-3.8 1.5-5.2 1.8 2.2 4.2 3.9 7.3 5.2 3 1.3 6.2 2 9.3 2 5.6 0 10.4-1.8 14.4-5.5 4-3.6 6-8.2 6-13.6 0-2.9-.6-5.7-1.9-8.2l-.4-.8h12.4v-8.2z"/></svg>