<svg xmlns="http://www.w3.org/2000/svg" viewBox="0 0 64 64" enable-background="new 0 0 64 64"><path d="M11 9.8v19.4c0 3.1.3 5.7.9 8 .6 2.2 1.7 4.3 3.3 6.2 1.6 1.9 3.9 3.5 6.9 4.7s6.4 1.9 10.2 1.9c3.6 0 6.9-.6 9.9-1.9s5.3-2.9 7-5c1.7-2.1 2.7-4.2 3.2-6.5.4-2.2.6-5.1.6-8.7v-16.3c0-1.9.2-3.4.7-4.4.4-1.1 1.1-1.9 2.2-2.5 1.1-.6 2.1-.9 3.1-.9v-3.8h-18v3.8c5 0 8 2.5 8 7.5v16.5c0 3.9-.6 7-1.2 9.2-.6 2.2-2.2 4-4.3 5.6-2.1 1.5-4.7 2.3-7.7 2.3-2.7 0-5.1-.7-7.1-2.1-2-1.4-3.2-3.2-3.8-5.2-.6-2-.9-4.8-.9-8.3v-19.5c0-2.2.4-3.7 1.1-4.6.7-.9 2.3-1.2 4.7-1.2h1.2v-4h-26v3.8c2 0 4.2.4 5 1.3.8.8 1 2.4 1 4.7zM1 56h62v8h-62z"/></svg>