<svg xmlns="http://www.w3.org/2000/svg" viewBox="0 0 64 64" enable-background="new 0 0 64 64"><path d="M0 28h64v8h-64zM16 2c0-1.1-.9-2-2-2h-12c-1.1 0-2 .9-2 2v19c0 1.1.9 2 2 2h12c1.1 0 2-.9 2-2v-19zM64 2c0-1.1-.9-2-2-2h-12c-1.1 0-2 .9-2 2v19c0 1.1.9 2 2 2h12c1.1 0 2-.9 2-2v-19zM40 2c0-1.1-.9-2-2-2h-12c-1.1 0-2 .9-2 2v9c0 1.1.9 2 2 2h12c1.1 0 2-.9 2-2v-9zM16 43c0-1.1-.9-2-2-2h-12c-1.1 0-2 .9-2 2v19c0 1.1.9 2 2 2h12c1.1 0 2-.9 2-2v-19zM64 43c0-1.1-.9-2-2-2h-12c-1.1 0-2 .9-2 2v19c0 1.1.9 2 2 2h12c1.1 0 2-.9 2-2v-19zM40 53c0-1.1-.9-2-2-2h-12c-1.1 0-2 .9-2 2v9c0 1.1.9 2 2 2h12c1.1 0 2-.9 2-2v-9z"/></svg>